ply
format ascii 1.0
comment julia
element vertex 10
property float64 x
property float64 y
property float64 z
property float64 r
property float64 g
property float64 b
end_header
0.3654516996857164	0.10929608810589461	1.3372274449120443	0.15348233167615732	0.8586748446122923	0.09511903852291548
1.4282802741807141	-0.45658187572902836	-0.22728528234647752	0.9473631455666756	0.4197257953873821	0.9767463637672378
-0.7322614237589068	0.31966610734897416	-0.9202161251468199	0.7480413032842292	0.33725209299936676	0.3142757147163584
-0.44787532346404074	-1.804295876062474	0.01735997747687217	0.9134798171313763	0.2482131631519846	0.042303437074471706
0.9580867108727636	1.1839979328759036	1.2436525294510306	0.855846262320437	0.22163847143773996	0.009001517489301003
-0.36333499604962327	0.2404957163160068	0.8307117358735209	0.7291671211143791	0.07292965590194012	0.06946990801396202
-0.9679567925215042	0.05694509847158479	0.6069994718747279	0.15206417788180415	0.09122569122541457	0.5808175800812936
-0.16721107007617256	-0.9524943202442337	-1.4960763695769452	0.3573572450158755	0.906285445801829	0.7300872834787251
0.045336955321096675	-1.5575076588135166	-0.2670372133903755	0.5784962329934986	0.3844420001190838	0.31081144835191177
-0.16025749063633812	1.8507384193678917	0.7598564014319459	0.6693529159786864	0.6428634056447697	0.8720505329512205
